# xmcd CD database file
#
# Track frame offsets:
#	150
#	12980
#	28563
#	48073
#	66125
#	78200
#	95020
#	119800
#	143670
#
# Disc length: 2188 seconds
#
# Revision: 1
# Processed by: cddbd v1.5.2PL0 Copyright (c) Steve Scherf et al.
# Submitted via: CDex 1.51
#
DISCID=6f088a09
DTITLE=Lightnin' Hopkins - Smokes Like Lightning
DYEAR=1962
DGENRE=Blues
TTITLE0=T Model Blues
TTITLE1=Jackstropper Blues
TTITLE2=You Cook All Right
TTITLE3=My Black Name
TTITLE4=You Never Miss Your Water
TTITLE5=Let's Do The Susie-Q
TTITLE6=Ida Mae
TTITLE7=Smokes Like Lightning
TTITLE8=Prison Farm Blues
EXTD=YEAR: 1962
EXTT0=
EXTT1=
EXTT2=
EXTT3=
EXTT4=
EXTT5=
EXTT6=
EXTT7=
EXTT8=
PLAYORDER=
